# xmcd
#
# Track frame offsets:
# 150
# 16684
# 30766
# 49709
# 67504
# 81865
# 99106
# 114942
# 127391
# 144960
# 165791
# 183425
# 200179
# 220819
# 238391
# 255203
# 274036
# 290372
# 309109
#
# Disc length: 4396 seconds
#
# Revision: 0
# Processed by: cddbd v1.5.1PL2 Copyright (c) Steve Scherf et al.
# Submitted via: Audion 3.0.2 (http://www.panic.com/audion/)
#
DISCID=ee112a13
DTITLE=Various Artist - Mr. Bedoyas Mix CD 1
DYEAR=1900
DGENRE=
TTITLE0=Forget it
TTITLE1=Perfect
TTITLE2=Precious
TTITLE3=Learn to Fly
TTITLE4=Sympathy
TTITLE5=Deal to the World
TTITLE6=Dont Ask Why
TTITLE7=Her Voice
TTITLE8=Who I am hates who Ive been
TTITLE9=Tripping
TTITLE10=Perfect World
TTITLE11=Mr. Brightside
TTITLE12=Jumper
TTITLE13=Let me go
TTITLE14=S.O.S.
TTITLE15=Collide
TTITLE16=Golden
TTITLE17=A decade under the influence
TTITLE18=Comen Back Down
EXTD=
EXTT0=
EXTT1=
EXTT2=
EXTT3=
EXTT4=
EXTT5=
EXTT6=
EXTT7=
EXTT8=
EXTT9=
EXTT10=
EXTT11=
EXTT12=
EXTT13=
EXTT14=
EXTT15=
EXTT16=
EXTT17=
EXTT18=
PLAYORDER=
